<?xml version="1.0" standalone="no"?><!DOCTYPE svg PUBLIC "-//W3C//DTD SVG 1.1//EN" "http://www.w3.org/Graphics/SVG/1.1/DTD/svg11.dtd"><svg t="1657271280518" class="icon" viewBox="0 0 1034 1024" version="1.1" xmlns="http://www.w3.org/2000/svg" p-id="3395" xmlns:xlink="http://www.w3.org/1999/xlink" width="201.953125" height="200"><defs><style type="text/css">@font-face { font-family: feedback-iconfont; src: url("//at.alicdn.com/t/font_1031158_u69w8yhxdu.woff2?t=1630033759944") format("woff2"), url("//at.alicdn.com/t/font_1031158_u69w8yhxdu.woff?t=1630033759944") format("woff"), url("//at.alicdn.com/t/font_1031158_u69w8yhxdu.ttf?t=1630033759944") format("truetype"); }
</style></defs><path d="M160.703177 1018.742857c-34.857143 0.114286-66.971429-18.514286-84.228571-48.8-16.342857-3.428571-31.657143-10.971429-44.228572-21.942857-18.057143-15.771429-29.485714-37.714286-31.771428-61.6-2.514286-24.914286 5.028571-49.714286 21.028571-68.914286 14.514286-17.714286 34.971429-29.6 57.485714-33.485714-55.771429-86.742857-77.6-174.4-60-246.285714 14.628571-59.885714 49.828571-84.914286 98.514286-119.428572 34.857143-24.8 82.628571-58.628571 147.428572-121.257143 74.171429-71.657143 122.285714-134.514286 157.485714-180.342857 23.657143-30.857143 42.4-55.314286 61.828571-73.714285 26.628571-25.371429 53.942857-37.714286 83.542857-37.714286 4.914286 0 9.828571 0.342857 14.742858 1.028571l1.6 0.228572c3.314286-0.228571 6.628571-0.457143 10.057142-0.457143 52.685714 0 113.6 34.285714 166.857143 74.285714 4.114286-6.171429 8.914286-11.885714 14.285715-16.914286 17.371429-16.342857 40.228571-25.485714 64.114285-25.485714 3.085714 0 6.285714 0.114286 9.371429 0.457143 42.057143 4.228571 75.2 36 83.542857 76.114286 46.628571 26.857143 62.628571 86.4 35.771429 133.028571-4.8 8.342857-10.857143 15.885714-17.828572 22.514286 42.285714 56.571429 77.257143 120.914286 72.685714 175.314286 0.114286 0.571429 0.114286 1.028571 0.228572 1.6 4.571429 33.485714-5.942857 64-32.228572 93.485714-18.857143 21.142857-45.028571 41.257143-78.171428 66.628571-45.828571 35.2-108.685714 83.314286-180.342857 157.485715-62.628571 64.8-96.571429 112.571429-121.257143 147.428571-34.628571 48.571429-59.657143 83.771429-119.542857 98.514286-16.8 4-33.942857 6.057143-51.2 5.942857-41.371429 0-85.828571-10.628571-132.228572-31.657143-19.314286-8.8-38.057143-18.857143-56-30.171429-11.542857 33.142857-40.342857 57.371429-75.085714 62.971429-5.485714 0.685714-10.971429 1.142857-16.457143 1.142857z" fill="#25467A" p-id="3396"></path><path d="M113.16032 932c4.571429 25.485714 29.6 42.514286 55.885714 38.057143 23.542857-4 40.114286-23.771429 40.114286-46.057143 0-2.742857-0.228571-5.371429-0.685714-8.114286-1.828571-10.057143-5.142857-19.657143-9.942857-28.685714l162.171428-167.085714c16.571429-19.085714 14.628571-47.885714-4.457143-64.457143-0.571429-0.457143-1.028571-0.914286-1.6-1.371429-20.571429-16.571429-50.628571-13.942857-68.114285 5.942857L120.36032 832c-9.485714-1.485714-19.085714-1.942857-28.571429-1.257143C65.274606 833.142857 45.731749 856 48.246034 881.714286s26.057143 44.571429 52.685715 42.171428c0 0 6.285714-0.342857 9.485714 2.628572 1.371429 1.485714 2.4 3.428571 2.742857 5.485714z" fill="#F3F3F3" p-id="3397"></path><path d="M575.903177 53.714286c-71.657143-9.714286-100.228571 106.285714-277.6 277.714285C145.503177 479.085714 84.131749 473.028571 65.617463 549.028571c-21.6 88.685714 35.314286 204.457143 120.914286 293.714286 89.257143 85.485714 205.028571 142.514286 293.6 120.914286 76-18.514286 69.942857-80 217.6-232.685714 171.542857-177.371429 287.428571-206.057143 277.714285-277.714286-9.371429-68.114286-116.342857-57.028571-233.371428-166.171429-109.028571-117.028571-98.057143-224-166.171429-233.371428z" fill="#E64A19" p-id="3398"></path><path d="M697.731749 730.971429C550.074606 883.657143 556.131749 945.028571 480.131749 963.542857c-88.571429 21.6-204.342857-35.314286-293.6-120.914286-37.257143-38.857143-69.142857-82.857143-91.428572-127.314285 14.628571 20.342857 30.628571 39.657143 47.885714 57.714285 89.371429 85.371429 207.657143 139.885714 300.8 113.714286 80-22.514286 76.228571-86.171429 236.228572-251.314286 120-123.885714 213.485714-182.171429 262.628571-227.885714 18.285714 11.657143 30.057143 25.028571 32.8 45.6 9.828571 71.771429-106.171429 100.342857-277.714285 277.828572z" fill="#CF4216" p-id="3399"></path><path d="M742.074606 287.085714c117.028571 109.142857 224 98.057143 233.371428 166.171429 1.714286 11.428571-0.228571 23.2-5.485714 33.6-0.914286 1.028571-1.828571 2.057143-2.857143 2.971428-58.742857 58.742857-202.171429 10.742857-320.342857-107.428571s-166.285714-261.6-107.428571-320.342857c1.028571-0.914286 1.942857-1.942857 2.971428-2.857143 10.4-5.257143 22.057143-7.2 33.6-5.485714 68.228571 9.371429 57.142857 116.342857 166.171429 233.371428z" fill="#FF7043" p-id="3400"></path><path d="M827.103177 202.057143c111.428571 111.542857 177.942857 225.828571 134.971429 268.685714s-168.114286-12.571429-279.657143-124.114286-167.085714-236.571429-124.114286-279.428571 157.257143 23.428571 268.8 134.857143z" fill="#FF8A65" p-id="3401"></path><path d="M787.56032 241.714286c54.742857 54.742857 88.228571 109.942857 68.8 129.485714s-79.657143-9.142857-134.285714-63.885714-83.428571-114.857143-63.885715-134.4 74.628571 14.057143 129.371429 68.8z" fill="#FF7043" p-id="3402"></path><path d="M894.188891 150.971429c25.485714 4.571429 42.514286 29.6 38.057143 55.885714-4 23.542857-23.771429 40.114286-46.057143 40.114286-2.742857 0-5.371429-0.228571-8.114285-0.685715-10.057143-1.828571-19.657143-5.257143-28.685715-9.942857l-68.685714 66.171429c-11.428571 6.742857-31.2-2.4-48.685714-19.885715s-23.771429-36.228571-20.114286-45.485714l82.057143-78.971428c-1.6-9.485714-1.942857-19.085714-1.257143-28.571429 2.4-26.514286 25.257143-46.171429 50.971429-43.542857s44.571429 26.057143 42.171428 52.685714c0 0-0.342857 6.285714 2.628572 9.485714 1.714286 1.371429 3.657143 2.4 5.714285 2.742858z" fill="#F3F3F3" p-id="3403"></path><path d="M405.16032 659.428571c-38.171429 0-69.142857-30.971429-69.142857-69.257142 0-7.657143 6.171429-13.828571 13.828571-13.828572 7.314286 0 13.485714 5.714286 13.828572 13.028572v0.8c-0.342857 22.971429 17.942857 41.828571 40.8 42.171428 22.971429 0.342857 41.828571-17.942857 42.171428-40.8v-1.371428c-0.228571-7.657143 5.828571-14.057143 13.371429-14.285715 7.657143-0.228571 14.057143 5.828571 14.285714 13.371429v0.8c0 38.285714-30.971429 69.257143-69.142857 69.371428zM225.274606 479.542857c-0.342857 22.971429 17.942857 41.828571 40.8 42.171429s41.828571-17.942857 42.171428-40.8v-1.371429c-0.342857-22.971429-19.314286-41.257143-42.171428-40.8-22.4 0.342857-40.457143 18.4-40.8 40.8zM501.96032 479.542857c-0.342857 22.971429 17.828571 41.828571 40.8 42.285714 22.971429 0.342857 41.828571-17.828571 42.285714-40.8v-1.485714c-0.342857-22.971429-19.314286-41.257143-42.171428-40.8-22.4 0.342857-40.571429 18.4-40.914286 40.8z" fill="#25467A" p-id="3404"></path><path d="M211.446034 548.685714h-55.314285c-15.314286 0.342857-27.428571 12.914286-27.085715 28.228572 0.342857 14.857143 12.228571 26.857143 27.085715 27.085714H211.446034c15.314286 0.342857 27.885714-11.771429 28.228572-27.085714s-11.771429-27.885714-27.085715-28.228572h-1.142857z m442.857143 0H598.874606c-15.314286 0.342857-27.428571 12.914286-27.085715 28.228572 0.342857 14.857143 12.228571 26.857143 27.085715 27.085714h55.314285c15.314286-0.342857 27.428571-12.914286 27.085715-28.228571-0.228571-14.742857-12.228571-26.742857-26.971429-27.085715z" fill="#FFAB91" p-id="3405"></path></svg>